<?xml version="1.0" encoding="UTF-8"?>
<svg width="196px" height="91px" viewBox="0 0 196 91" version="1.1" xmlns="http://www.w3.org/2000/svg" xmlns:xlink="http://www.w3.org/1999/xlink">
    <!-- Generator: Sketch 43.2 (39069) - http://www.bohemiancoding.com/sketch -->
    <title>advertising</title>
    <desc>Created with Sketch.</desc>
    <defs></defs>
    <g id="Page-1" stroke="none" stroke-width="1" fill="none" fill-rule="evenodd">
        <g id="advertising" fill="#2277B3">
            <path d="M38.884,77.33 L135.2106,77.33 L135.2106,72.87 L38.884,72.87 L38.884,77.33 Z M153.098,50.66 L148.457,50.66 L148.457,5 L24.136,5 L24.136,40.35 L19.495,40.35 L19.495,0.54 L153.098,0.54 L153.098,50.66 Z" id="Fill-28"></path>
            <path d="M195.895,85.57 L195.895,87.38 C195.895,88.22 195.561,89.02 194.967,89.62 C194.373,90.21 193.568,90.54 192.728,90.54 L128.772,90.54 C127.933,90.54 127.127,90.21 126.534,89.62 C125.94,89.02 125.606,88.22 125.606,87.38 L125.606,85.57 L195.895,85.57 Z M189.879,49.48 C189.879,47.73 188.461,46.31 186.713,46.31 L134.788,46.31 C133.04,46.31 131.622,47.73 131.622,49.48 L131.622,83.86 L189.879,83.86 L189.879,49.48 Z M135.21,81.36 L186.2903,81.36 L186.2903,50.538 L135.21,50.538 L135.21,81.36 Z" id="Fill-29"></path>
            <path d="M149.166,66.09 C149.166,67.97 149.66,68.93 150.322,69.53 C151.27,70.39 152.517,70.43 153.205,70.43 C154.049,70.43 154.984,70.28 155.906,69.49 C156.997,68.56 157.14,67.02 157.14,65.58 L157.14,64.19 C157.14,62.22 157.14,61.86 157.166,61.44 C157.192,60.99 157.296,60.76 157.647,60.7 C157.802,60.67 157.88,60.66 158.023,60.66 C158.179,60.66 158.257,60.63 158.257,60.54 C158.257,60.45 158.166,60.43 157.984,60.43 C157.478,60.43 156.66,60.47 156.504,60.47 C156.491,60.47 155.673,60.43 155.01,60.43 C154.828,60.43 154.737,60.45 154.737,60.54 C154.737,60.63 154.815,60.66 154.958,60.66 C155.101,60.66 155.322,60.67 155.426,60.7 C155.854,60.79 155.958,61 155.984,61.44 C156.01,61.86 156.01,62.22 156.01,64.19 L156.01,65.82 C156.01,67.15 155.971,68.32 155.257,69.04 C154.737,69.56 154.036,69.74 153.465,69.74 C153.023,69.74 152.426,69.69 151.841,69.21 C151.205,68.69 150.828,67.89 150.828,66.01 L150.828,64.19 C150.828,62.22 150.828,61.86 150.854,61.44 C150.88,60.99 150.984,60.76 151.335,60.7 C151.491,60.67 151.569,60.66 151.712,60.66 C151.841,60.66 151.919,60.63 151.919,60.54 C151.919,60.45 151.828,60.43 151.634,60.43 C151.166,60.43 150.348,60.47 150.036,60.47 C149.647,60.47 148.828,60.43 148.14,60.43 C147.945,60.43 147.854,60.45 147.854,60.54 C147.854,60.63 147.932,60.66 148.075,60.66 C148.257,60.66 148.478,60.67 148.582,60.7 C149.01,60.79 149.114,61 149.14,61.44 C149.166,61.86 149.166,62.22 149.166,64.19 L149.166,66.09 Z" id="Fill-30"></path>
            <path d="M160.789,66.48 C160.789,67.67 160.789,68.7 160.724,69.25 C160.673,69.62 160.608,69.91 160.348,69.96 C160.231,69.99 160.075,70.01 159.88,70.01 C159.724,70.01 159.673,70.05 159.673,70.12 C159.673,70.21 159.763,70.25 159.932,70.25 C160.452,70.25 161.27,70.21 161.517,70.21 C161.712,70.21 162.673,70.25 163.426,70.25 C163.595,70.25 163.686,70.21 163.686,70.12 C163.686,70.05 163.634,70.01 163.53,70.01 C163.374,70.01 163.088,69.99 162.893,69.96 C162.504,69.91 162.426,69.62 162.387,69.25 C162.322,68.7 162.322,67.67 162.322,66.47 L162.322,66.28 C162.322,66.21 162.361,66.18 162.426,66.18 L163.556,66.21 C163.647,66.21 163.724,66.22 163.789,66.3 C163.958,66.49 164.556,67.38 165.075,68.09 C165.802,69.09 166.296,69.7 166.854,70 C167.192,70.18 167.517,70.25 168.244,70.25 L169.478,70.25 C169.634,70.25 169.724,70.22 169.724,70.12 C169.724,70.05 169.673,70.01 169.569,70.01 C169.465,70.01 169.348,70 169.205,69.97 C169.01,69.93 168.478,69.84 167.75,69.09 C166.984,68.28 166.088,67.13 164.932,65.67 C166.244,64.61 166.647,63.73 166.647,62.76 C166.647,61.89 166.127,61.23 165.763,60.99 C165.062,60.51 164.192,60.43 163.374,60.43 C162.971,60.43 161.984,60.47 161.543,60.47 C161.27,60.47 160.452,60.43 159.763,60.43 C159.569,60.43 159.478,60.45 159.478,60.54 C159.478,60.63 159.556,60.66 159.699,60.66 C159.88,60.66 160.101,60.67 160.205,60.7 C160.634,60.79 160.737,61 160.763,61.44 C160.789,61.86 160.789,62.22 160.789,64.19 L160.789,66.48 Z M162.322,61.27 C162.322,61.17 162.348,61.12 162.439,61.09 C162.569,61.05 162.802,61.04 163.127,61.04 C163.893,61.04 165.114,61.57 165.114,63.41 C165.114,64.48 164.737,65.08 164.348,65.36 C164.114,65.53 163.945,65.58 163.426,65.58 C163.101,65.58 162.712,65.54 162.439,65.45 C162.348,65.41 162.322,65.36 162.322,65.22 L162.322,61.27 Z" id="Fill-31"></path>
            <path d="M170.595,66.48 C170.595,67.74 170.595,68.76 170.53,69.31 C170.491,69.69 170.413,69.91 170.153,69.96 C170.036,69.99 169.88,70.01 169.686,70.01 C169.53,70.01 169.478,70.05 169.478,70.12 C169.478,70.21 169.569,70.25 169.737,70.25 C170.257,70.25 171.075,70.21 171.374,70.21 C171.724,70.21 172.543,70.25 173.4,70.25 C173.543,70.25 173.647,70.21 173.647,70.12 C173.647,70.05 173.582,70.01 173.439,70.01 C173.244,70.01 172.958,69.99 172.776,69.96 C172.387,69.91 172.296,69.67 172.257,69.32 C172.205,68.76 172.205,67.74 172.205,66.48 L172.205,64.19 C172.205,62.22 172.205,61.86 172.231,61.44 C172.257,60.99 172.361,60.76 172.712,60.7 C172.867,60.67 172.971,60.66 173.101,60.66 C173.231,60.66 173.309,60.63 173.309,60.53 C173.309,60.45 173.205,60.43 173.036,60.43 C172.543,60.43 171.776,60.47 171.452,60.47 C171.075,60.47 170.257,60.43 169.763,60.43 C169.556,60.43 169.452,60.45 169.452,60.53 C169.452,60.63 169.53,60.66 169.66,60.66 C169.815,60.66 169.984,60.67 170.127,60.71 C170.413,60.78 170.543,61 170.569,61.44 C170.595,61.86 170.595,62.22 170.595,64.19 L170.595,66.48 Z" id="Fill-32"></path>
            <polygon id="Fill-33" points="60.049 87.27 112.5431 87.27 112.5431 81.352 60.049 81.352"></polygon>
            <path d="M0.105,90.54 L38.8833,90.54 L38.8833,40.349 L0.105,40.349 L0.105,90.54 Z M7.363,66.09 C7.363,67.97 7.857,68.93 8.519,69.53 C9.467,70.39 10.714,70.43 11.402,70.43 C12.246,70.43 13.181,70.28 14.103,69.49 C15.194,68.56 15.337,67.02 15.337,65.58 L15.337,64.19 C15.337,62.22 15.337,61.86 15.363,61.44 C15.389,60.99 15.493,60.76 15.844,60.7 C15.999,60.67 16.077,60.66 16.22,60.66 C16.376,60.66 16.454,60.63 16.454,60.54 C16.454,60.45 16.363,60.43 16.181,60.43 C15.675,60.43 14.857,60.47 14.701,60.47 C14.688,60.47 13.87,60.43 13.207,60.43 C13.025,60.43 12.935,60.45 12.935,60.54 C12.935,60.63 13.012,60.66 13.155,60.66 C13.298,60.66 13.519,60.67 13.623,60.7 C14.051,60.79 14.155,61 14.181,61.44 C14.207,61.86 14.207,62.22 14.207,64.19 L14.207,65.82 C14.207,67.15 14.168,68.32 13.454,69.04 C12.935,69.56 12.233,69.74 11.662,69.74 C11.22,69.74 10.623,69.69 10.038,69.21 C9.402,68.69 9.025,67.89 9.025,66.01 L9.025,64.19 C9.025,62.22 9.025,61.86 9.051,61.44 C9.077,60.99 9.181,60.76 9.532,60.7 C9.688,60.67 9.766,60.66 9.909,60.66 C10.038,60.66 10.116,60.63 10.116,60.54 C10.116,60.45 10.025,60.43 9.831,60.43 C9.363,60.43 8.545,60.47 8.233,60.47 C7.844,60.47 7.025,60.43 6.337,60.43 C6.142,60.43 6.051,60.45 6.051,60.54 C6.051,60.63 6.129,60.66 6.272,60.66 C6.454,60.66 6.675,60.67 6.779,60.7 C7.207,60.79 7.311,61 7.337,61.44 C7.363,61.86 7.363,62.22 7.363,64.19 L7.363,66.09 Z M27.807,70.23 C27.842,70.24 27.885,70.25 27.935,70.25 C28.454,70.25 29.272,70.21 29.571,70.21 C29.922,70.21 30.74,70.25 31.597,70.25 C31.74,70.25 31.844,70.21 31.844,70.12 C31.844,70.05 31.779,70.01 31.636,70.01 C31.441,70.01 31.155,69.99 30.973,69.96 C30.584,69.91 30.493,69.67 30.454,69.32 C30.402,68.76 30.402,67.74 30.402,66.48 L30.402,64.19 C30.402,62.22 30.402,61.86 30.428,61.44 C30.454,60.99 30.558,60.76 30.909,60.7 C31.064,60.67 31.168,60.66 31.298,60.66 C31.428,60.66 31.506,60.63 31.506,60.53 C31.506,60.45 31.402,60.43 31.233,60.43 C30.74,60.43 29.973,60.47 29.649,60.47 C29.272,60.47 28.454,60.43 27.96,60.43 C27.753,60.43 27.649,60.45 27.649,60.53 C27.649,60.63 27.727,60.66 27.857,60.66 C28.012,60.66 28.181,60.67 28.324,60.71 C28.61,60.78 28.74,61 28.766,61.44 C28.792,61.86 28.792,62.22 28.792,64.19 L28.792,66.48 C28.792,67.74 28.792,68.76 28.727,69.31 C28.688,69.69 28.61,69.91 28.35,69.96 C28.233,69.99 28.077,70.01 27.883,70.01 L27.813,70.01 L27.766,70.01 C27.662,70.01 27.545,70 27.402,69.97 C27.207,69.93 26.675,69.84 25.948,69.09 C25.181,68.28 24.285,67.13 23.129,65.67 C24.441,64.61 24.844,63.73 24.844,62.76 C24.844,61.89 24.324,61.23 23.96,60.99 C23.259,60.51 22.389,60.43 21.571,60.43 C21.168,60.43 20.181,60.47 19.74,60.47 C19.467,60.47 18.649,60.43 17.96,60.43 C17.766,60.43 17.675,60.45 17.675,60.54 C17.675,60.63 17.753,60.66 17.896,60.66 C18.077,60.66 18.298,60.67 18.402,60.7 C18.831,60.79 18.935,61 18.96,61.44 C18.986,61.86 18.986,62.22 18.986,64.19 L18.986,66.48 C18.986,67.67 18.986,68.7 18.922,69.25 C18.87,69.62 18.805,69.91 18.545,69.96 C18.428,69.99 18.272,70.01 18.077,70.01 C17.922,70.01 17.87,70.05 17.87,70.12 C17.87,70.21 17.96,70.25 18.129,70.25 C18.649,70.25 19.467,70.21 19.714,70.21 C19.909,70.21 20.87,70.25 21.623,70.25 C21.792,70.25 21.883,70.21 21.883,70.12 C21.883,70.05 21.831,70.01 21.727,70.01 C21.571,70.01 21.285,69.99 21.09,69.96 C20.701,69.91 20.623,69.62 20.584,69.25 C20.519,68.7 20.519,67.67 20.519,66.47 L20.519,66.28 C20.519,66.21 20.558,66.18 20.623,66.18 L21.753,66.21 C21.844,66.21 21.922,66.22 21.986,66.3 C22.155,66.49 22.753,67.38 23.272,68.09 C23.999,69.09 24.493,69.7 25.051,70 C25.389,70.18 25.714,70.25 26.441,70.25 L27.675,70.25 C27.726,70.25 27.77,70.24 27.807,70.23 Z M20.519,61.27 C20.519,61.17 20.545,61.12 20.636,61.09 C20.766,61.05 20.999,61.04 21.324,61.04 C22.09,61.04 23.311,61.57 23.311,63.41 C23.311,64.48 22.935,65.08 22.545,65.36 C22.311,65.53 22.142,65.58 21.623,65.58 C21.298,65.58 20.909,65.54 20.636,65.45 C20.545,65.41 20.519,65.36 20.519,65.22 L20.519,61.27 Z" id="Fill-34"></path>
            <path d="M59.126,40.49 C59.126,44.91 60.283,47.16 61.837,48.56 C64.06,50.57 66.984,50.66 68.599,50.66 C70.579,50.66 72.772,50.33 74.934,48.47 C77.493,46.28 77.828,42.68 77.828,39.3 L77.828,36.04 C77.828,31.41 77.828,30.56 77.889,29.58 C77.95,28.52 78.194,28 79.016,27.85 C79.382,27.79 79.564,27.76 79.899,27.76 C80.265,27.76 80.448,27.69 80.448,27.48 C80.448,27.27 80.235,27.21 79.808,27.21 C78.62,27.21 76.701,27.3 76.336,27.3 C76.305,27.3 74.386,27.21 72.833,27.21 C72.406,27.21 72.193,27.27 72.193,27.48 C72.193,27.69 72.376,27.76 72.711,27.76 C73.046,27.76 73.564,27.79 73.807,27.85 C74.813,28.06 75.056,28.55 75.117,29.58 C75.178,30.56 75.178,31.41 75.178,36.04 L75.178,39.85 C75.178,42.99 75.087,45.73 73.411,47.4 C72.193,48.62 70.548,49.05 69.208,49.05 C68.172,49.05 66.771,48.93 65.4,47.8 C63.908,46.58 63.024,44.72 63.024,40.31 L63.024,36.04 C63.024,31.41 63.024,30.56 63.085,29.58 C63.146,28.52 63.39,28 64.212,27.85 C64.578,27.79 64.761,27.76 65.096,27.76 C65.4,27.76 65.583,27.69 65.583,27.48 C65.583,27.27 65.37,27.21 64.913,27.21 C63.816,27.21 61.897,27.3 61.166,27.3 C60.253,27.3 58.334,27.21 56.719,27.21 C56.262,27.21 56.049,27.27 56.049,27.48 C56.049,27.69 56.232,27.76 56.567,27.76 C56.993,27.76 57.511,27.79 57.755,27.85 C58.76,28.06 59.004,28.55 59.065,29.58 C59.126,30.56 59.126,31.41 59.126,36.04 L59.126,40.49 Z" id="Fill-35"></path>
            <path d="M86.388,41.4 C86.388,44.2 86.388,46.61 86.235,47.89 C86.113,48.77 85.961,49.44 85.352,49.57 C85.078,49.63 84.712,49.69 84.255,49.69 C83.89,49.69 83.768,49.78 83.768,49.93 C83.768,50.14 83.981,50.24 84.377,50.24 C85.596,50.24 87.515,50.14 88.093,50.14 C88.55,50.14 90.804,50.24 92.571,50.24 C92.967,50.24 93.18,50.14 93.18,49.93 C93.18,49.78 93.058,49.69 92.815,49.69 C92.449,49.69 91.779,49.63 91.322,49.57 C90.408,49.44 90.226,48.77 90.134,47.89 C89.982,46.61 89.982,44.2 89.982,41.37 L89.982,40.95 C89.982,40.76 90.073,40.7 90.226,40.7 L92.876,40.76 C93.089,40.76 93.272,40.79 93.424,40.98 C93.82,41.43 95.221,43.5 96.439,45.18 C98.145,47.52 99.303,48.96 100.612,49.66 C101.404,50.08 102.166,50.24 103.872,50.24 L106.765,50.24 C107.131,50.24 107.344,50.17 107.344,49.93 C107.344,49.78 107.222,49.69 106.979,49.69 C106.735,49.69 106.461,49.66 106.126,49.6 C105.669,49.5 104.42,49.29 102.714,47.52 C100.917,45.64 98.815,42.93 96.104,39.51 C99.181,37.02 100.125,34.94 100.125,32.69 C100.125,30.65 98.907,29.1 98.054,28.52 C96.409,27.39 94.368,27.21 92.449,27.21 C91.505,27.21 89.19,27.3 88.154,27.3 C87.515,27.3 85.596,27.21 83.981,27.21 C83.524,27.21 83.311,27.27 83.311,27.48 C83.311,27.69 83.494,27.76 83.829,27.76 C84.255,27.76 84.773,27.79 85.017,27.85 C86.022,28.06 86.266,28.55 86.327,29.58 C86.388,30.56 86.388,31.41 86.388,36.04 L86.388,41.4 Z M89.982,29.19 C89.982,28.94 90.043,28.82 90.256,28.76 C90.561,28.67 91.109,28.64 91.87,28.64 C93.668,28.64 96.531,29.89 96.531,34.21 C96.531,36.71 95.647,38.11 94.734,38.78 C94.185,39.18 93.789,39.3 92.571,39.3 C91.809,39.3 90.896,39.21 90.256,39 C90.043,38.9 89.982,38.78 89.982,38.45 L89.982,29.19 Z" id="Fill-36"></path>
            <path d="M109.385,41.4 C109.385,44.36 109.385,46.76 109.233,48.04 C109.141,48.93 108.959,49.44 108.349,49.57 C108.075,49.63 107.71,49.69 107.253,49.69 C106.887,49.69 106.765,49.78 106.765,49.93 C106.765,50.14 106.979,50.24 107.375,50.24 C108.593,50.24 110.512,50.14 111.213,50.14 C112.035,50.14 113.954,50.24 115.964,50.24 C116.3,50.24 116.543,50.14 116.543,49.93 C116.543,49.78 116.391,49.69 116.056,49.69 C115.599,49.69 114.929,49.63 114.502,49.57 C113.589,49.44 113.375,48.9 113.284,48.07 C113.162,46.76 113.162,44.36 113.162,41.4 L113.162,36.04 C113.162,31.41 113.162,30.56 113.223,29.58 C113.284,28.52 113.528,28 114.35,27.85 C114.716,27.79 114.959,27.76 115.264,27.76 C115.568,27.76 115.751,27.69 115.751,27.45 C115.751,27.27 115.508,27.21 115.112,27.21 C113.954,27.21 112.157,27.3 111.395,27.3 C110.512,27.3 108.593,27.21 107.436,27.21 C106.948,27.21 106.705,27.27 106.705,27.45 C106.705,27.69 106.887,27.76 107.192,27.76 C107.557,27.76 107.953,27.79 108.288,27.88 C108.959,28.03 109.263,28.55 109.324,29.58 C109.385,30.56 109.385,31.41 109.385,36.04 L109.385,41.4 Z" id="Fill-37"></path>
        </g>
    </g>
</svg>