<?xml version="1.0" encoding="UTF-8" standalone="no"?>
<!DOCTYPE svg PUBLIC "-//W3C//DTD SVG 1.1//EN" "http://www.w3.org/Graphics/SVG/1.1/DTD/svg11.dtd">
<svg width="100%" height="100%" viewBox="0 0 150 182" version="1.1" xmlns="http://www.w3.org/2000/svg" xmlns:xlink="http://www.w3.org/1999/xlink" xml:space="preserve" style="fill-rule:evenodd;clip-rule:evenodd;stroke-linejoin:round;stroke-miterlimit:1.41421;">
    <g transform="matrix(1,0,0,1,-1864,-2152)">
        <g transform="matrix(1,0,0,1,1297.64,132.304)">
            <g id="icon_guides" transform="matrix(0.964839,0,0,0.964839,31.1445,77.4137)">
                <g transform="matrix(0.889798,0,0,0.889798,-1058.92,106.174)">
                    <path d="M1967.37,2176.29L1848.15,2176.29L1848.15,2334.37L1834.04,2334.37L1834.04,2164L1967.37,2164L1967.37,2176.29Z" style="fill:rgb(0,33,71);"/>
                </g>
                <g transform="matrix(0.889798,0,0,0.889798,-1076.72,88.3724)">
                    <path d="M1967.37,2176.29L1848.15,2176.29L1848.15,2334.37L1834.04,2334.37L1834.04,2164L1967.37,2164L1967.37,2176.29Z" style="fill:rgb(0,33,71);"/>
                </g>
                <g transform="matrix(0.889798,0,0,0.889798,-1058.92,106.174)">
                    <path d="M1988.06,2184.68L1854.72,2184.68L1854.72,2355.05L1988.06,2355.05L1988.06,2184.68ZM1970.1,2240.36C1971.03,2241.3 1971.55,2242.56 1971.55,2243.87C1971.55,2245.19 1971.03,2246.45 1970.1,2247.38C1960.19,2257.29 1931.84,2285.64 1918.46,2299.02C1916.56,2300.92 1913.99,2301.99 1911.3,2301.99C1908.62,2301.99 1906.05,2300.92 1904.15,2299.02C1896.47,2291.35 1886.67,2281.54 1880.81,2275.68C1879.88,2274.76 1879.36,2273.49 1879.36,2272.18C1879.36,2270.86 1879.88,2269.6 1880.81,2268.67C1881.7,2267.78 1882.65,2266.83 1883.54,2265.94C1884.47,2265.01 1885.73,2264.49 1887.04,2264.49C1888.36,2264.49 1889.62,2265.01 1890.55,2265.94C1896.24,2271.63 1905.18,2280.57 1909.5,2284.89C1909.98,2285.37 1910.63,2285.64 1911.3,2285.64C1911.98,2285.64 1912.63,2285.37 1913.1,2284.89C1920.69,2277.3 1950.14,2247.85 1960.36,2237.64C1961.29,2236.71 1962.55,2236.19 1963.87,2236.19C1965.18,2236.19 1966.44,2236.71 1967.37,2237.64C1968.26,2238.53 1969.21,2239.48 1970.1,2240.36Z" style="fill:rgb(0,33,71);"/>
                </g>
            </g>
        </g>
    </g>
</svg>
