<?xml version="1.0" encoding="UTF-8"?>
<svg width="86px" height="85px" viewBox="0 0 86 85" version="1.1" xmlns="http://www.w3.org/2000/svg" xmlns:xlink="http://www.w3.org/1999/xlink">
    <!-- Generator: Sketch 43.2 (39069) - http://www.bohemiancoding.com/sketch -->
    <title>logos</title>
    <desc>Created with Sketch.</desc>
    <defs></defs>
    <g id="Page-1" stroke="none" stroke-width="1" fill="none" fill-rule="evenodd">
        <g id="logos" fill="#002147">
            <path d="M43,0 C66.456,0 85.5,19.04 85.5,42.5 C85.5,65.96 66.456,85 43,85 C19.544,85 0.5,65.96 0.5,42.5 C0.5,19.04 19.544,0 43,0 Z M13.506,45.54 C13.506,50.02 14.679,52.3 16.254,53.72 C18.507,55.76 21.471,55.85 23.108,55.85 C25.115,55.85 27.338,55.51 29.53,53.63 C32.123,51.41 32.463,47.76 32.463,44.34 L32.463,41.03 C32.463,36.34 32.463,35.47 32.525,34.49 C32.586,33.41 32.833,32.88 33.667,32.73 C34.037,32.67 34.223,32.63 34.562,32.63 C34.933,32.63 35.118,32.57 35.118,32.36 C35.118,32.14 34.902,32.08 34.47,32.08 C33.266,32.08 31.32,32.17 30.95,32.17 C30.919,32.17 28.974,32.08 27.399,32.08 C26.967,32.08 26.751,32.14 26.751,32.36 C26.751,32.57 26.936,32.63 27.276,32.63 C27.615,32.63 28.14,32.67 28.387,32.73 C29.406,32.94 29.653,33.44 29.715,34.49 C29.777,35.47 29.777,36.34 29.777,41.03 L29.777,44.89 C29.777,48.07 29.684,50.85 27.986,52.55 C26.751,53.78 25.084,54.22 23.725,54.22 C22.676,54.22 21.255,54.09 19.866,52.95 C18.353,51.72 17.458,49.83 17.458,45.35 L17.458,41.03 C17.458,36.34 17.458,35.47 17.519,34.49 C17.581,33.41 17.828,32.88 18.662,32.73 C19.032,32.67 19.218,32.63 19.557,32.63 C19.866,32.63 20.051,32.57 20.051,32.36 C20.051,32.14 19.835,32.08 19.372,32.08 C18.26,32.08 16.315,32.17 15.574,32.17 C14.648,32.17 12.703,32.08 11.067,32.08 C10.604,32.08 10.387,32.14 10.387,32.36 C10.387,32.57 10.573,32.63 10.912,32.63 C11.345,32.63 11.869,32.67 12.116,32.73 C13.135,32.94 13.382,33.44 13.444,34.49 C13.506,35.47 13.506,36.34 13.506,41.03 L13.506,45.54 Z M62.107,55.4 C62.192,55.41 62.294,55.42 62.411,55.42 C63.646,55.42 65.591,55.33 66.301,55.33 C67.135,55.33 69.08,55.42 71.118,55.42 C71.458,55.42 71.705,55.33 71.705,55.11 C71.705,54.96 71.55,54.86 71.211,54.86 C70.747,54.86 70.068,54.8 69.636,54.74 C68.71,54.62 68.494,54.06 68.401,53.23 C68.277,51.9 68.277,49.46 68.277,46.47 L68.277,41.03 C68.277,36.34 68.277,35.47 68.339,34.49 C68.401,33.41 68.648,32.88 69.482,32.73 C69.852,32.67 70.099,32.63 70.408,32.63 C70.717,32.63 70.902,32.57 70.902,32.33 C70.902,32.14 70.655,32.08 70.253,32.08 C69.08,32.08 67.259,32.17 66.487,32.17 C65.591,32.17 63.646,32.08 62.473,32.08 C61.979,32.08 61.732,32.14 61.732,32.33 C61.732,32.57 61.917,32.63 62.226,32.63 C62.596,32.63 62.998,32.67 63.337,32.76 C64.017,32.91 64.325,33.44 64.387,34.49 C64.449,35.47 64.449,36.34 64.449,41.03 L64.449,46.47 C64.449,49.46 64.449,51.9 64.295,53.2 C64.202,54.09 64.017,54.62 63.399,54.74 C63.121,54.8 62.751,54.86 62.288,54.86 C62.226,54.86 62.171,54.87 62.123,54.87 C62.089,54.87 62.051,54.86 62.01,54.86 C61.763,54.86 61.485,54.83 61.145,54.77 C60.682,54.68 59.416,54.46 57.687,52.67 C55.866,50.76 53.735,48.01 50.988,44.55 C54.106,42.02 55.063,39.92 55.063,37.64 C55.063,35.57 53.828,33.99 52.964,33.41 C51.296,32.26 49.228,32.08 47.283,32.08 C46.326,32.08 43.979,32.17 42.929,32.17 C42.281,32.17 40.336,32.08 38.7,32.08 C38.236,32.08 38.02,32.14 38.02,32.36 C38.02,32.57 38.206,32.63 38.545,32.63 C38.977,32.63 39.502,32.67 39.749,32.73 C40.768,32.94 41.015,33.44 41.077,34.49 C41.139,35.47 41.139,36.34 41.139,41.03 L41.139,46.47 C41.139,49.31 41.139,51.75 40.984,53.04 C40.861,53.94 40.706,54.62 40.089,54.74 C39.811,54.8 39.44,54.86 38.977,54.86 C38.607,54.86 38.483,54.96 38.483,55.11 C38.483,55.33 38.7,55.42 39.101,55.42 C40.336,55.42 42.281,55.33 42.868,55.33 C43.331,55.33 45.615,55.42 47.406,55.42 C47.808,55.42 48.024,55.33 48.024,55.11 C48.024,54.96 47.9,54.86 47.653,54.86 C47.283,54.86 46.603,54.8 46.14,54.74 C45.214,54.62 45.029,53.94 44.936,53.04 C44.782,51.75 44.782,49.31 44.782,46.44 L44.782,46 C44.782,45.82 44.874,45.76 45.029,45.76 L47.715,45.82 C47.931,45.82 48.116,45.85 48.271,46.03 C48.672,46.5 50.092,48.6 51.327,50.29 C53.056,52.67 54.229,54.12 55.557,54.83 C56.36,55.27 57.132,55.42 58.861,55.42 L61.794,55.42 C61.916,55.42 62.021,55.41 62.107,55.4 Z M44.782,34.09 C44.782,33.84 44.844,33.72 45.06,33.65 C45.368,33.56 45.924,33.53 46.696,33.53 C48.518,33.53 51.42,34.8 51.42,39.18 C51.42,41.71 50.524,43.13 49.598,43.81 C49.043,44.21 48.641,44.34 47.406,44.34 C46.634,44.34 45.708,44.24 45.06,44.03 C44.844,43.93 44.782,43.81 44.782,43.47 L44.782,34.09 Z" id="Fill-73"></path>
        </g>
    </g>
</svg>