<?xml version="1.0" encoding="UTF-8"?>
<svg width="158px" height="91px" viewBox="0 0 158 91" version="1.1" xmlns="http://www.w3.org/2000/svg" xmlns:xlink="http://www.w3.org/1999/xlink">
    <!-- Generator: Sketch 43.2 (39069) - http://www.bohemiancoding.com/sketch -->
    <title>marketing</title>
    <desc>Created with Sketch.</desc>
    <defs></defs>
    <g id="Page-1" stroke="none" stroke-width="1" fill="none" fill-rule="evenodd">
        <g id="marketing" fill="#2277B3">
            <path d="M35.426,52.86 C35.426,52.86 34.461,54.2 34.694,54.69 C35.243,55.85 38.353,59.45 38.353,59.45 C38.353,59.45 38.17,56.22 37.621,55.06 C37.14,54.04 35.426,52.86 35.426,52.86 Z" id="Fill-43"></path>
            <path d="M34.928,52.13 C34.928,52.13 33.601,53.85 33.962,54.69 C34.594,56.15 38.718,60.91 38.718,60.91 L29.572,64.57 L29.572,66.03 L38.718,62.37 L50.426,82.13 L37.255,90.54 C37.255,90.54 28.043,68.41 24.018,62.01 C21.408,57.85 13.109,52.13 13.109,52.13 L34.928,52.13 Z" id="Fill-44"></path>
            <path d="M37.262,20.7 C53.321,19.85 69.318,19.39 85.727,3.11 L85.727,63.47 C69.318,47.18 53.321,46.73 37.262,45.87 L37.262,20.7 Z" id="Fill-45"></path>
            <path d="M34.928,20.67 L11.893,20.67 C5.637,20.67 0.566,25.74 0.566,31.99 L0.566,34.95 C0.566,41.2 5.637,46.28 11.893,46.28 L34.928,46.28 L34.928,20.67 Z" id="Fill-46"></path>
            <polygon id="Fill-47" points="13.109 51.03 34.9285 51.03 34.9285 47.3715 13.109 47.3715"></polygon>
            <path d="M91.215,2.37 C91.215,1.36 90.396,0.54 89.386,0.54 L89.385,0.54 C88.375,0.54 87.556,1.36 87.556,2.37 L87.556,64.2 C87.556,65.21 88.375,66.03 89.385,66.03 L89.386,66.03 C90.396,66.03 91.215,65.21 91.215,64.2 L91.215,2.37 Z" id="Fill-48"></path>
            <path d="M93.044,41.52 L93.044,25.42 C93.044,25.42 94.208,26.36 95.409,27.34 C97.058,28.67 98.015,30.68 98.015,32.8 L98.015,34.14 C98.015,36.26 97.058,38.27 95.409,39.61 C94.208,40.58 93.044,41.52 93.044,41.52 Z" id="Fill-49"></path>
            <polygon id="Fill-50" points="150.132 4.76 110.199 15.46 110.956 18.29 150.889 7.59"></polygon>
            <polygon id="Fill-51" points="150.132 62.18 110.199 51.48 110.956 48.65 150.889 59.35"></polygon>
            <polygon id="Fill-52" points="116.093 34.93 157.4345 34.93 157.4345 32.0032 116.093 32.0032"></polygon>
        </g>
    </g>
</svg>