<?xml version="1.0" encoding="UTF-8"?>
<svg width="105px" height="73px" viewBox="0 0 105 73" version="1.1" xmlns="http://www.w3.org/2000/svg" xmlns:xlink="http://www.w3.org/1999/xlink">
    <!-- Generator: Sketch 43.2 (39069) - http://www.bohemiancoding.com/sketch -->
    <title>news</title>
    <desc>Created with Sketch.</desc>
    <defs></defs>
    <g id="Page-1" stroke="none" stroke-width="1" fill="none" fill-rule="evenodd">
        <g id="news" fill="#2277B3">
            <path d="M93.6,0.5 L93.6,73 L8.1,73 C3.958,73 0.6,69.64 0.6,65.5 L0.6,0.5 L93.6,0.5 Z M104.6,10.5 L104.6,65 C104.6,69.42 101.02,73 96.6,73 L96.6,73 L96.6,10.5 L104.6,10.5 Z M63.35,68 L75.1,68 L75.1,65.5 L63.35,65.5 L63.35,68 Z M77.1,68 L88.85,68 L88.85,65.5 L77.1,65.5 L77.1,68 Z M6.6,68 L26.6,68 L26.6,65.5 L6.6,65.5 L6.6,68 Z M30.1,68 L39.5118,68 L39.5118,65.5 L30.1,65.5 L30.1,68 Z M6.6,63.5 L34.8059,63.5 L34.8059,61 L6.6,61 L6.6,63.5 Z M38.1,63.5 L58.1,63.5 L58.1,61 L38.1,61 L38.1,63.5 Z M63.35,63.5 L85.85,63.5 L85.85,61 L63.35,61 L63.35,63.5 Z M6.6,59 L49.1,59 L49.1,56.5 L6.6,56.5 L6.6,59 Z M63.35,59 L83.35,59 L83.35,56.5 L63.35,56.5 L63.35,59 Z M63.35,54.5 L69.725,54.5 L69.725,52 L63.35,52 L63.35,54.5 Z M71.912,54.5 L81.3238,54.5 L81.3238,52 L71.912,52 L71.912,54.5 Z M83.35,54.5 L88.85,54.5 L88.85,52 L83.35,52 L83.35,54.5 Z M6.6,53 L58.1,53 L58.1,28 L6.6,28 L6.6,53 Z M63.35,50 L86.85,50 L86.85,47.5 L63.35,47.5 L63.35,50 Z M63.35,45.5 L83.35,45.5 L83.35,43 L63.35,43 L63.35,45.5 Z M63.35,41 L79.1,41 L79.1,38.5 L63.35,38.5 L63.35,41 Z M81.35,41 L88.85,41 L88.85,38.5 L81.35,38.5 L81.35,41 Z M63.35,32.5 L88.85,32.5 L88.85,28 L63.35,28 L63.35,32.5 Z M6.6,19 L88.85,19 L88.85,17 L6.6,17 L6.6,19 Z M35.35,12 L60.85,12 L60.85,5 L35.35,5 L35.35,12 Z" id="Fill-54"></path>
        </g>
    </g>
</svg>