<?xml version="1.0" encoding="UTF-8"?>
<svg width="80px" height="101px" viewBox="0 0 80 101" version="1.1" xmlns="http://www.w3.org/2000/svg" xmlns:xlink="http://www.w3.org/1999/xlink">
    <!-- Generator: Sketch 43.2 (39069) - http://www.bohemiancoding.com/sketch -->
    <title>photos</title>
    <desc>Created with Sketch.</desc>
    <defs></defs>
    <g id="Page-1" stroke="none" stroke-width="1" fill="none" fill-rule="evenodd">
        <g id="photos" fill="#002147">
            <path d="M56.225,89.67 L79.587,89.67 L79.587,94.17 C79.587,95.79 78.945,97.34 77.803,98.48 C76.661,99.62 75.113,100.26 73.498,100.26 L6.502,100.26 C4.887,100.26 3.339,99.62 2.197,98.48 C1.055,97.34 0.413,95.79 0.413,94.17 L0.413,89.67 L23.775,89.67 C28.326,93 33.935,94.97 40,94.97 C46.065,94.97 51.674,93 56.225,89.67 Z M21.634,46.96 C16.017,52 12.48,59.31 12.48,67.45 C12.48,75.58 16.017,82.9 21.634,87.93 L0.413,87.93 L0.413,46.96 L21.634,46.96 Z M79.587,87.93 L58.366,87.93 C63.983,82.9 67.52,75.58 67.52,67.45 C67.52,59.31 63.983,52 58.366,46.96 L79.587,46.96 L79.587,87.93 Z M47.119,35.76 L58.182,35.76 L58.182,42.1 L76.461,42.1 C77.29,42.1 78.085,42.43 78.671,43.01 C79.257,43.6 79.587,44.39 79.587,45.22 L79.587,45.22 L56.225,45.22 C51.674,41.89 46.065,39.93 40,39.93 C33.935,39.93 28.326,41.89 23.775,45.22 L0.413,45.22 L0.413,45.22 C0.413,44.39 0.743,43.6 1.329,43.01 C1.915,42.43 2.71,42.1 3.539,42.1 L21.818,42.1 L21.818,35.76 L32.881,35.76 L36.441,32.29 L43.559,32.29 L47.119,35.76 Z" id="Fill-66"></path>
            <path d="M40,42.97 C53.512,42.97 64.481,53.94 64.481,67.45 C64.481,80.96 53.512,91.93 40,91.93 C26.488,91.93 15.519,80.96 15.519,67.45 C15.519,53.94 26.488,42.97 40,42.97 Z M40,46.09 C51.787,46.09 61.356,55.66 61.356,67.45 C61.356,79.23 51.787,88.8 40,88.8 C28.213,88.8 18.644,79.23 18.644,67.45 C18.644,55.66 28.213,46.09 40,46.09 Z" id="Fill-67"></path>
            <path d="M40,48.82 C50.282,48.82 58.63,57.17 58.63,67.45 C58.63,77.73 50.282,86.08 40,86.08 C29.718,86.08 21.37,77.73 21.37,67.45 C21.37,57.17 29.718,48.82 40,48.82 Z M44,58.07 C46.792,60.05 48.268,62.54 48.862,65.36 L51.64,63.97 C51.626,61.08 49.949,57.97 47.473,56.33 L44,58.07 Z" id="Fill-68"></path>
            <polygon id="Fill-69" points="7.539 41.23 19.6859 41.23 19.6859 38.6256 7.539 38.6256"></polygon>
            <path d="M30.805,21.26 L24.618,21.26 C21.686,21.26 19.309,18.89 19.309,15.96 L19.309,5.57 C19.309,2.64 21.686,0.26 24.618,0.26 L55.382,0.26 C58.314,0.26 60.691,2.64 60.691,5.57 L60.691,15.96 C60.691,18.89 58.314,21.26 55.382,21.26 L49.209,21.26 L49.209,26.64 L45.73,26.64 L42.865,30.55 L37.135,30.55 L34.27,26.64 L30.805,26.64 L30.805,21.26 Z M22.146,17.44 L57.5657,17.44 L57.5657,3.55 L22.146,3.55 L22.146,17.44 Z" id="Fill-70"></path>
        </g>
    </g>
</svg>