<?xml version="1.0" encoding="UTF-8"?>
<svg width="80px" height="101px" viewBox="0 0 80 101" version="1.1" xmlns="http://www.w3.org/2000/svg" xmlns:xlink="http://www.w3.org/1999/xlink">
    <!-- Generator: Sketch 43.2 (39069) - http://www.bohemiancoding.com/sketch -->
    <title>photography</title>
    <desc>Created with Sketch.</desc>
    <defs></defs>
    <g id="Page-1" stroke="none" stroke-width="1" fill="none" fill-rule="evenodd">
        <g id="photography" fill="#2277B3">
            <path d="M56.225,90.25 L79.587,90.25 L79.587,94.75 C79.587,96.37 78.945,97.91 77.803,99.06 C76.661,100.2 75.113,100.84 73.498,100.84 L6.502,100.84 C4.887,100.84 3.339,100.2 2.197,99.06 C1.055,97.91 0.413,96.37 0.413,94.75 L0.413,90.25 L23.775,90.25 C28.326,93.58 33.935,95.54 40,95.54 C46.065,95.54 51.674,93.58 56.225,90.25 Z M21.634,47.54 C16.017,52.58 12.48,59.89 12.48,68.02 C12.48,76.16 16.017,83.47 21.634,88.51 L0.413,88.51 L0.413,47.54 L21.634,47.54 Z M79.587,88.51 L58.366,88.51 C63.983,83.47 67.52,76.16 67.52,68.02 C67.52,59.89 63.983,52.58 58.366,47.54 L79.587,47.54 L79.587,88.51 Z M47.119,36.34 L58.182,36.34 L58.182,42.67 L76.461,42.67 C77.29,42.67 78.085,43 78.671,43.59 C79.257,44.18 79.587,44.97 79.587,45.8 L79.587,45.8 L56.225,45.8 C51.674,42.47 46.065,40.5 40,40.5 C33.935,40.5 28.326,42.47 23.775,45.8 L0.413,45.8 L0.413,45.8 C0.413,44.97 0.743,44.18 1.329,43.59 C1.915,43 2.71,42.67 3.539,42.67 L21.818,42.67 L21.818,36.34 L32.881,36.34 L36.441,32.86 L43.559,32.86 L47.119,36.34 Z" id="Fill-12"></path>
            <path d="M40,43.54 C53.512,43.54 64.481,54.51 64.481,68.02 C64.481,81.54 53.512,92.51 40,92.51 C26.488,92.51 15.519,81.54 15.519,68.02 C15.519,54.51 26.488,43.54 40,43.54 Z M40,46.67 C51.787,46.67 61.356,56.24 61.356,68.02 C61.356,79.81 51.787,89.38 40,89.38 C28.213,89.38 18.644,79.81 18.644,68.02 C18.644,56.24 28.213,46.67 40,46.67 Z" id="Fill-13"></path>
            <path d="M40,49.39 C50.282,49.39 58.63,57.74 58.63,68.02 C58.63,78.31 50.282,86.65 40,86.65 C29.718,86.65 21.37,78.31 21.37,68.02 C21.37,57.74 29.718,49.39 40,49.39 Z M44,58.65 C46.792,60.63 48.268,63.12 48.862,65.94 L51.64,64.55 C51.626,61.65 49.949,58.55 47.473,56.91 L44,58.65 Z" id="Fill-14"></path>
            <polygon id="Fill-15" points="7.539 41.81 19.6859 41.81 19.6859 39.2056 7.539 39.2056"></polygon>
            <path d="M30.805,21.84 L24.618,21.84 C21.686,21.84 19.309,19.46 19.309,16.53 L19.309,6.15 C19.309,3.22 21.686,0.84 24.618,0.84 L55.382,0.84 C58.314,0.84 60.691,3.22 60.691,6.15 L60.691,16.53 C60.691,19.46 58.314,21.84 55.382,21.84 L49.209,21.84 L49.209,27.22 L45.73,27.22 L42.865,31.13 L37.135,31.13 L34.27,27.22 L30.805,27.22 L30.805,21.84 Z M22.146,18.02 L57.5657,18.02 L57.5657,4.13 L22.146,4.13 L22.146,18.02 Z" id="Fill-16"></path>
        </g>
    </g>
</svg>