<?xml version="1.0" encoding="UTF-8"?>
<svg width="132px" height="100px" viewBox="0 0 132 100" version="1.1" xmlns="http://www.w3.org/2000/svg" xmlns:xlink="http://www.w3.org/1999/xlink">
    <!-- Generator: Sketch 43.2 (39069) - http://www.bohemiancoding.com/sketch -->
    <title>policy</title>
    <desc>Created with Sketch.</desc>
    <defs></defs>
    <g id="Page-1" stroke="none" stroke-width="1" fill="none" fill-rule="evenodd">
        <g id="policy" fill="#2277B3">
            <path d="M37.351,50.71 C37.549,50.46 37.643,50.15 37.612,49.84 C37.581,49.53 37.427,49.24 37.185,49.05 C34.253,46.65 25.101,39.15 22.169,36.75 C21.927,36.55 21.616,36.46 21.304,36.49 C20.993,36.52 20.706,36.68 20.508,36.92 L20.508,36.92 C20.31,37.16 20.216,37.47 20.247,37.78 C20.278,38.09 20.431,38.38 20.673,38.58 C23.605,40.98 32.758,48.47 35.689,50.87 C35.932,51.07 36.243,51.16 36.554,51.13 C36.866,51.1 37.152,50.95 37.35,50.71 L37.351,50.71 Z M39.255,48.89 L21.912,34.69 C21.579,34.42 21.368,34.03 21.326,33.6 C21.283,33.17 21.503,32.81 21.684,32.41 C22.47,30.71 24.318,28.5 25.79,27.4 C26.137,27.14 26.455,26.85 26.883,26.81 C27.31,26.77 27.737,26.9 28.07,27.17 C31.641,30.09 41.842,38.45 45.413,41.37 C45.746,41.64 45.957,42.03 45.999,42.46 C46.042,42.89 45.842,43.27 45.641,43.65 C44.789,45.27 42.966,47.5 41.535,48.66 C41.2,48.94 40.87,49.21 40.442,49.25 C40.015,49.29 39.588,49.16 39.255,48.89 Z M56.846,26.89 C57.022,26.51 57.247,26.13 57.204,25.71 C57.162,25.28 56.951,24.89 56.618,24.61 C53.497,22.06 45.405,15.43 42.283,12.88 C41.951,12.61 41.524,12.48 41.096,12.52 C40.669,12.56 40.354,12.87 40.003,13.11 C36.905,15.2 31.673,21.69 30.253,25.01 C30.087,25.4 29.852,25.77 29.895,26.2 C29.937,26.63 30.148,27.02 30.481,27.29 C33.602,29.85 41.694,36.48 44.816,39.03 C45.148,39.3 45.575,39.43 46.003,39.39 C46.43,39.35 46.757,39.06 47.096,38.8 C50.06,36.56 55.37,30.12 56.846,26.89 Z M131.479,94.49 L128.092,98.62 L51.996,36.32 L55.383,32.19 L131.479,94.49 Z M65.187,17.22 C65.52,17.49 65.731,17.88 65.773,18.31 C65.816,18.74 65.594,19.1 65.415,19.5 C64.644,21.2 62.798,23.41 61.309,24.51 C60.961,24.77 60.644,25.05 60.216,25.1 C59.789,25.14 59.362,25.01 59.029,24.74 C55.458,21.81 45.257,13.46 41.686,10.54 C41.353,10.27 41.142,9.87 41.1,9.45 C41.057,9.02 41.283,8.66 41.458,8.26 C42.204,6.57 43.982,4.3 45.564,3.24 C45.925,3 46.229,2.7 46.657,2.66 C47.084,2.62 47.511,2.74 47.844,3.02 L65.187,17.22 Z M66.591,14.99 C66.789,14.75 66.883,14.44 66.852,14.13 C66.821,13.81 66.668,13.53 66.426,13.33 C63.494,10.93 54.341,3.44 51.41,1.04 C51.167,0.84 50.856,0.74 50.545,0.77 C50.233,0.81 49.947,0.96 49.749,1.2 C49.749,1.2 49.749,1.2 49.748,1.2 C49.55,1.44 49.456,1.76 49.487,2.07 C49.518,2.38 49.672,2.66 49.914,2.86 C52.846,5.26 61.998,12.76 64.93,15.16 C65.172,15.35 65.483,15.45 65.795,15.42 C66.106,15.39 66.392,15.23 66.591,14.99 L66.591,14.99 Z" id="Fill-18"></path>
            <polygon id="Fill-19" points="6.354 94.18 53.3393 94.18 53.3393 91.8192 6.354 91.8192"></polygon>
            <path d="M59.172,99.92 C59.172,97.54 57.244,95.61 54.867,95.61 L4.826,95.61 C2.449,95.61 0.521,97.54 0.521,99.92 L0.521,99.92 L59.172,99.92 L59.172,99.92 Z" id="Fill-20"></path>
        </g>
    </g>
</svg>