<?xml version="1.0" encoding="UTF-8"?>
<svg width="95px" height="90px" viewBox="0 0 95 90" version="1.1" xmlns="http://www.w3.org/2000/svg" xmlns:xlink="http://www.w3.org/1999/xlink">
    <!-- Generator: Sketch 43.2 (39069) - http://www.bohemiancoding.com/sketch -->
    <title>social-media</title>
    <desc>Created with Sketch.</desc>
    <defs></defs>
    <g id="Page-1" stroke="none" stroke-width="1" fill="none" fill-rule="evenodd">
        <g id="social-media" fill="#2277B3">
            <path d="M10.994,89.65 C10.994,89.65 32.275,89.56 35.623,88.73 C36.793,88.45 37.937,85.96 37.937,85.96 C37.937,85.96 29.559,73.27 26.868,67.08 C24.501,61.63 21.193,51.22 21.193,47.93 C21.193,46.26 27.761,43.46 27.761,43.46 C27.761,43.46 25.088,42.27 23.852,42.38 C19.397,42.8 0.816,47.93 0.816,47.93 L10.994,89.65 Z M41.542,83.84 C41.542,83.84 45.958,85.53 49.978,85.96 C54.204,86.41 58.703,88.68 63.203,88.68 C68.498,88.68 77.812,87.59 81.75,85.96 C85.17,84.54 86.05,76.75 85.76,76.63 C90.09,74.28 91.96,70.33 89.98,63.86 C94.01,58.46 92.7,54.34 89.98,50.56 C97,50.23 96.27,37.33 85.76,36.95 C81.48,36.79 77.759,38.51 71.827,36.95 C63.198,34.67 63.028,32.8 66.866,25.76 C70.06,19.89 73.745,19.58 74.572,11.61 C74.95,7.96 73.525,2.75 71.827,1.59 C70.412,0.62 69.119,0.09 68.344,0.95 C66.436,3.08 63.76,10.02 60.38,13.72 C55.683,18.88 44.288,28.01 40.162,31.88 C38.508,33.43 37.088,35.21 35.623,36.95 C33.657,39.27 33.22,44.76 28.368,46.97 C25.927,48.09 24.859,48.49 25.086,49.76 C25.744,53.44 29.49,62.89 32.315,69.08 C34.642,74.18 41.542,83.84 41.542,83.84 Z" id="Fill-26"></path>
        </g>
    </g>
</svg>