<?xml version="1.0" encoding="UTF-8"?>
<svg width="108px" height="86px" viewBox="0 0 108 86" version="1.1" xmlns="http://www.w3.org/2000/svg" xmlns:xlink="http://www.w3.org/1999/xlink">
    <!-- Generator: Sketch 43.2 (39069) - http://www.bohemiancoding.com/sketch -->
    <title>templates</title>
    <desc>Created with Sketch.</desc>
    <defs></defs>
    <g id="Page-1" stroke="none" stroke-width="1" fill="none" fill-rule="evenodd">
        <g id="templates" fill="#002147">
            <path d="M67.417,39.15 L59.898,39.15 C60.262,36.46 60.346,33.42 59.978,30.04 C59.051,21.53 53.687,14.36 44.099,14.2 C34.512,14.05 27.615,23.81 27.615,23.81 L21.073,19.05 L22.14,40.43 L41.768,33.31 L34.572,28.44 C45.057,15.76 56.146,24.51 56.502,39.15 L37.083,39.15 L37.083,77 L67.417,77 L67.417,85.19 L0.75,85.19 L0.75,0 L67.417,0 L67.417,39.15 Z M107.25,73.61 L40.583,73.61 L40.583,42.59 L56.392,42.59 C56.186,44.97 56.205,46.21 55.409,48.75 L49.5,48.75 L49.5,52.75 L97,52.75 L97,48.75 L56.902,48.75 C57.94,46.86 58.51,45.63 59.251,42.59 L107.25,42.59 L107.25,73.61 Z M49.5,67.75 L90.5,67.75 L90.5,63.75 L49.5,63.75 L49.5,67.75 Z M49.5,60.25 L84,60.25 L84,56.25 L49.5,56.25 L49.5,60.25 Z" id="Fill-60"></path>
        </g>
    </g>
</svg>