<?xml version="1.0" encoding="UTF-8" standalone="no"?>
<svg width="60px" height="60px" viewBox="0 0 60 60" version="1.1" xmlns="http://www.w3.org/2000/svg" xmlns:xlink="http://www.w3.org/1999/xlink">
	<a xlink:href="https://www.facebook.com/universityofri/" target="_parent">
		<g id="group">
				<path d="M56.578209,59.876194 C58.3994776,59.876194 59.8759701,58.3997015 59.8759701,56.5784328 L59.8759701,3.42156716 C59.8759701,1.59985075 58.3994776,0.12380597 56.578209,0.12380597 L3.42179104,0.12380597 C1.59985075,0.12380597 0.12380597,1.59985075 0.12380597,3.42156716 L0.12380597,56.5784328 C0.12380597,58.3997015 1.59985075,59.876194 3.42179104,59.876194 L56.578209,59.876194" id="icon" fill="#4990E2"></path>
				<path d="M41.3518657,59.876194 L41.3518657,36.7370149 L49.1187313,36.7370149 L50.2815672,27.7191045 L41.3518657,27.7191045 L41.3518657,21.9615672 C41.3518657,19.3506716 42.076791,17.5714925 45.8209701,17.5714925 L50.5963433,17.5692537 L50.5963433,9.50373134 C49.77,9.39402985 46.9356716,9.14843284 43.6379104,9.14843284 C36.7529104,9.14843284 32.0393284,13.3508955 32.0393284,21.0687313 L32.0393284,27.7191045 L24.2525373,27.7191045 L24.2525373,36.7370149 L32.0393284,36.7370149 L32.0393284,59.876194 L41.3518657,59.876194" id="Fill-16" fill="#FFFFFF"></path>
		</g>
	</a>
</svg>