<?xml version="1.0" encoding="UTF-8" standalone="no"?>
<svg width="60px" height="60px" viewBox="0 0 60 60" version="1.1" xmlns="http://www.w3.org/2000/svg" xmlns:xlink="http://www.w3.org/1999/xlink">
	<a xlink:href="https://www.instagram.com/universityofri/" target="_parent">
		<g id="icon" fill="#4990E2">
			<path d="M30,5.41321429 C38.0078571,5.41321429 38.9563095,5.44369048 42.1186905,5.58797619 C45.0427381,5.72142857 46.6307143,6.21 47.687619,6.62059524 C49.087381,7.16464286 50.0865476,7.81464286 51.1359524,8.86404762 C52.1853571,9.91345238 52.8353571,10.912619 53.3792857,12.312381 C53.79,13.3692857 54.2785714,14.9572619 54.4120238,17.8811905 C54.5563095,21.0436905 54.5867857,21.9921429 54.5867857,30 C54.5867857,38.0078571 54.5563095,38.9563095 54.4120238,42.1186905 C54.2785714,45.0427381 53.79,46.6307143 53.3792857,47.687619 C52.8353571,49.087381 52.1853571,50.0865476 51.1359524,51.1359524 C50.0865476,52.1853571 49.087381,52.8353571 47.687619,53.3792857 C46.6307143,53.79 45.0427381,54.2785714 42.1186905,54.4120238 C38.9567857,54.5563095 38.0083333,54.5867857 30,54.5867857 C21.9916667,54.5867857 21.0432143,54.5563095 17.8813095,54.4120238 C14.9572619,54.2785714 13.3692857,53.79 12.3125,53.3792857 C10.912619,52.8353571 9.91345238,52.1853571 8.86404762,51.1359524 C7.81464286,50.0865476 7.16464286,49.087381 6.62071429,47.687619 C6.21,46.6307143 5.72142857,45.0427381 5.58797619,42.1188095 C5.44369048,38.9563095 5.41321429,38.0078571 5.41321429,30 C5.41321429,21.9921429 5.44369048,21.0436905 5.58797619,17.8813095 C5.72142857,14.9572619 6.21,13.3692857 6.62071429,12.312381 C7.16464286,10.912619 7.81464286,9.91345238 8.86404762,8.86404762 C9.91345238,7.81464286 10.912619,7.16464286 12.3125,6.62059524 C13.3692857,6.21 14.9572619,5.72142857 17.8811905,5.58797619 C21.0436905,5.44369048 21.9921429,5.41321429 30,5.41321429 M30,0.0094047619 C21.855,0.0094047619 20.8338095,0.0439285714 17.635,0.189880952 C14.4427381,0.335595238 12.2627381,0.8425 10.355,1.58392857 C8.38285714,2.35035714 6.71035714,3.37583333 5.04309524,5.04309524 C3.37583333,6.71035714 2.35035714,8.38285714 1.58392857,10.355 C0.8425,12.2627381 0.335595238,14.4427381 0.189880952,17.635 C0.0439285714,20.8336905 0.00952380952,21.855 0.00952380952,30 C0.00952380952,38.145 0.0439285714,39.1663095 0.189880952,42.365 C0.335595238,45.5572619 0.8425,47.7372619 1.58392857,49.645 C2.35035714,51.6170238 3.37583333,53.2896429 5.04309524,54.9569048 C6.71035714,56.6241667 8.38285714,57.6496429 10.355,58.4160714 C12.2627381,59.1575 14.4427381,59.6644048 17.635,59.810119 C20.8338095,59.9560714 21.855,59.9904762 30,59.9904762 C38.145,59.9904762 39.1663095,59.9560714 42.365,59.810119 C45.5572619,59.6644048 47.7372619,59.1575 49.645,58.4160714 C51.6171429,57.6496429 53.2896429,56.6241667 54.9569048,54.9569048 C56.6241667,53.2896429 57.6496429,51.6171429 58.4160714,49.645 C59.1575,47.7372619 59.6644048,45.5572619 59.810119,42.365 C59.9560714,39.1663095 59.9905952,38.145 59.9905952,30 C59.9905952,21.855 59.9560714,20.8336905 59.810119,17.635 C59.6644048,14.4427381 59.1575,12.2627381 58.4160714,10.355 C57.6496429,8.38285714 56.6241667,6.71035714 54.9569048,5.04309524 C53.2896429,3.37583333 51.6171429,2.35035714 49.645,1.58392857 C47.7372619,0.8425 45.5572619,0.335595238 42.365,0.189880952 C39.1663095,0.0439285714 38.145,0.0094047619 30,0.0094047619" id="Fill-1"></path>
			<path d="M30,14.5994048 C21.4945238,14.5994048 14.5994048,21.4945238 14.5994048,30 C14.5994048,38.5054762 21.4945238,45.4005952 30,45.4005952 C38.5054762,45.4005952 45.4005952,38.5054762 45.4005952,30 C45.4005952,21.4945238 38.5054762,14.5994048 30,14.5994048 L30,14.5994048 Z M30,39.9969048 C24.4789286,39.9969048 20.0030952,35.5210714 20.0030952,30 C20.0030952,24.4789286 24.4789286,20.0030952 30,20.0030952 C35.5210714,20.0030952 39.9969048,24.4789286 39.9969048,30 C39.9969048,35.5210714 35.5210714,39.9969048 30,39.9969048 L30,39.9969048 Z" id="Fill-2"></path>
			<path d="M46.0090476,17.589881 C44.0214286,17.589881 42.410119,15.9785714 42.410119,13.9909524 C42.410119,12.0033333 44.0214286,10.3921429 46.0090476,10.3921429 C47.9966667,10.3921429 49.6078571,12.0033333 49.6078571,13.9909524 C49.6078571,15.9785714 47.9966667,17.589881 46.0090476,17.589881 Z" id="Fill-3"></path>
		</g>
	</a>
</svg>