<?xml version="1.0" encoding="UTF-8" standalone="no"?>
<svg width="74px" height="60px" viewBox="0 0 74 60" version="1.1" xmlns="http://www.w3.org/2000/svg" xmlns:xlink="http://www.w3.org/1999/xlink">
	<defs>
		<filter id="keaney">
			<feColorMatrix
			color-interpolation-filters="sRGB"
			type="matrix"
			values="0.13 0    0    0    0
							0    0.47 0    0    0
							0    0    0.70 0    0
							0    0    0    1    0 " />
		</filter>
	</defs>
	<a xlink:href="https://twitter.com/universityofri" target="_parent">
		<g id="icon" fill="currentColor">
			<path d="M73.5578475,7.29766816 C70.8513901,8.49793722 67.94287,9.30914798 64.8901345,9.67399103 C68.0060987,7.80618834 70.3988341,4.84869955 71.5256502,1.32484305 C68.6098655,3.05408072 65.3800897,4.31004484 61.9426009,4.98699552 C59.1895964,2.05399103 55.2675336,0.221165919 50.9270852,0.221165919 C42.5924664,0.221165919 35.8353363,6.97802691 35.8353363,15.3121076 C35.8353363,16.4948879 35.9690583,17.6467265 36.226278,18.7512108 C23.6838565,18.1218834 12.5639462,12.1138117 5.12071749,2.98358744 C3.82170404,5.21246637 3.07748879,7.80484305 3.07748879,10.5704933 C3.07748879,15.8060987 5.74197309,20.4252915 9.79130045,23.1314798 C7.31730942,23.0531839 4.99049327,22.3743498 2.95560538,21.2440359 C2.95452915,21.3069955 2.95452915,21.3702242 2.95452915,21.433722 C2.95452915,28.7456502 8.15650224,34.8452018 15.0602691,36.2313901 C13.7938117,36.5763229 12.4606278,36.7606278 11.0841256,36.7606278 C10.1117489,36.7606278 9.16627803,36.6661883 8.24502242,36.4899552 C10.1652915,42.4856502 15.738565,46.8486996 22.3423318,46.970583 C17.1774888,51.0180269 10.6703139,53.4306726 3.6,53.4306726 C2.38197309,53.4306726 1.1806278,53.3593722 0,53.22 C6.67856502,57.5017937 14.6112108,60 23.1336323,60 C50.8918386,60 66.0710314,37.0043946 66.0710314,17.0620628 C66.0710314,16.407713 66.0565022,15.756861 66.0274439,15.1097758 C68.9757848,12.9820628 71.5345291,10.3240359 73.5578475,7.29766816" id="Fill-1"></path>
		</g>
	</a>
</svg>