<?xml version="1.0" encoding="UTF-8" standalone="no"?>
<svg width="86px" height="60px" viewBox="0 0 86 60" version="1.1" xmlns="http://www.w3.org/2000/svg" xmlns:xlink="http://www.w3.org/1999/xlink">
	<a xlink:href="https://www.youtube.com/user/UniversityOfRI/" target="_parent">
		<g id="wrap">
			<polyline id="Fill-1" fill="#FFFFFF" points="33.8157163 41.0804729 56.8477051 29.1472323 33.8157163 17.1305424 33.8157163 41.0804729"></polyline>
			<polyline id="Fill-2" fill="#DEDED9" points="54.013936 30.618025 54.0117663 30.6166064 56.8477051 29.1472323 54.013936 30.618025"></polyline>
			<g id="Group-6">
					<polyline id="Fill-3" fill="#DEDED9" points="54.0117663 30.6166064 33.8157163 17.1305424 56.8477051 29.1472323 54.0117663 30.6166064"></polyline>
					<path d="M33.8196384,41.0804729 L33.8157163,17.1305424 L56.8477051,29.1472323 L33.8196384,41.0804729 L33.8196384,41.0804729 Z M84.3880389,12.9815299 C84.3880389,12.9815299 83.5552156,7.1076217 80.9993324,4.52094576 C77.7579972,1.12598053 74.1247844,1.10912378 72.458637,0.910431154 C60.5306537,0.0481502086 42.6380529,0.0481502086 42.6380529,0.0481502086 L42.6010014,0.0481502086 C42.6010014,0.0481502086 24.7088178,0.0481502086 12.7804172,0.910431154 C11.1141864,1.10912378 7.48230876,1.12598053 4.23980529,4.52094576 C1.68408901,7.1076217 0.852433936,12.9815299 0.852433936,12.9815299 C0.852433936,12.9815299 0,19.8794437 0,26.777274 L0,33.2440056 C0,40.1417524 0.852433936,47.0395828 0.852433936,47.0395828 C0.852433936,47.0395828 1.68408901,52.9135744 4.23980529,55.5002503 C7.48230876,58.895299 11.7415577,58.7878999 13.6386092,59.1437274 C20.4578303,59.7976356 42.6196106,60 42.6196106,60 C42.6196106,60 60.5306537,59.9730459 72.458637,59.1108484 C74.1247844,58.9120723 77.7579972,58.895299 80.9993324,55.5002503 C83.5552156,52.9135744 84.3880389,47.0395828 84.3880389,47.0395828 C84.3880389,47.0395828 85.2392211,40.1417524 85.2392211,33.2440056 L85.2392211,26.777274 C85.2392211,19.8794437 84.3880389,12.9815299 84.3880389,12.9815299 L84.3880389,12.9815299 Z" id="icon" fill="#4990E2"></path>
			</g>
		</g>
	</a>
</svg>